<?xml version="1.0" encoding="UTF-8" standalone="no" ?>
<!DOCTYPE svg PUBLIC "-//W3C//DTD SVG 1.1//EN" "http://www.w3.org/Graphics/SVG/1.1/DTD/svg11.dtd">
<svg xmlns="http://www.w3.org/2000/svg" xmlns:xlink="http://www.w3.org/1999/xlink" version="1.1" width="1000" height="1000" viewBox="0 0 500 500" xml:space="preserve">
<desc>Created with Fabric.js 4.6.0</desc>
<defs>
</defs>
<g transform="matrix(2.31 0 0 2.65 260 250)" id="J-JaG_iFJPV6cUD1j5j0L"  >
<path style="stroke: rgb(192,141,90); stroke-width: 0; stroke-dasharray: none; stroke-linecap: butt; stroke-dashoffset: 0; stroke-linejoin: miter; stroke-miterlimit: 4; fill: rgb(0,0,0); fill-rule: nonzero; opacity: 1;" vector-effect="non-scaling-stroke"  transform=" translate(0, 0)" d="M -94.2623 -59.40579 C -94.2623 -78.65651 -76.35722 -94.26230000000001 -54.270199999999996 -94.26230000000001 L 54.27019000000001 -94.26230000000001 L 54.27019000000001 -94.26230000000001 C 76.35722000000001 -94.26230000000001 94.26229000000001 -78.65651000000001 94.26229000000001 -59.40579000000001 L 94.26229000000001 59.405789999999996 L 94.26229000000001 59.405789999999996 C 94.26229000000001 78.65651 76.35721000000001 94.2623 54.27019000000001 94.2623 L -54.270199999999996 94.2623 L -54.270199999999996 94.2623 C -76.35722999999999 94.2623 -94.2623 78.65651 -94.2623 59.405789999999996 z" stroke-linecap="round" />
</g>
<g transform="matrix(2.29 0 0 2.29 334.28 183.1)" id="FJE5N1eMcUkflUmkREQO4"  >
<path style="stroke: rgb(255,136,0); stroke-width: 1; stroke-dasharray: none; stroke-linecap: butt; stroke-dashoffset: 0; stroke-linejoin: miter; stroke-miterlimit: 4; fill: rgb(0,0,0); fill-opacity: 0; fill-rule: nonzero; opacity: 1;" vector-effect="non-scaling-stroke"  transform=" translate(-258.59, -318.86)" d="M 257.2765 317.7729 L 257.7496 319.5419 C 257.8638 319.8649 258.1765 320.1455 258.5099 320.2241 C 258.8392 320.3185 259.2491 320.2265 259.5066 320.0005 C 259.7744 319.787 259.9373 319.3998 259.9026 319.059 C 259.884 318.717 259.6631 318.3597 259.3654 318.1903 L 257.6284 317.4653 L 257.3567 317.5095 z" stroke-linecap="round" />
</g>
<g transform="matrix(2.29 0 0 2.29 135.89 141.28)" id="hHXSC9rM_0d4BMFN9g8KD"  >
<path style="stroke: rgb(152,0,255); stroke-width: 2; stroke-dasharray: none; stroke-linecap: butt; stroke-dashoffset: 0; stroke-linejoin: miter; stroke-miterlimit: 4; fill: rgb(0,0,0); fill-opacity: 0; fill-rule: nonzero; opacity: 1;" vector-effect="non-scaling-stroke"  transform=" translate(-172.08, -300.63)" d="M 175.1588 305.0598 L 167.4678 300.373 C 167.0567 300.1479 166.7946 299.5692 166.8967 299.1117 C 166.9559 298.6467 167.3987 298.1912 167.8619 298.119 L 177.2935 296.196 L 175.9642 300.205 L 175.2013 304.6306 z" stroke-linecap="round" />
</g>
<g transform="matrix(2.29 0 0 2.29 268.92 470.58)" id="9eAaPdxqyHaC9Qc8VMZKt"  >
<path style="stroke: rgb(5,125,255); stroke-width: 2; stroke-dasharray: none; stroke-linecap: butt; stroke-dashoffset: 0; stroke-linejoin: miter; stroke-miterlimit: 4; fill: rgb(0,0,0); fill-opacity: 0; fill-rule: nonzero; opacity: 1;" vector-effect="non-scaling-stroke"  transform=" translate(-230.09, -444.22)" d="M 292.3683 444.3937 C 292.7502 445.9399 286.1527 447.7802 274.1155 449.0266 C 262.0783 450.2729 244.6013 450.9252 230.0755 450.8435 C 215.5495 450.8439 198.0764 450.0938 186.0464 448.7802 C 174.0163 447.4666 167.4293 445.5894 167.8198 444.0453 C 167.4379 442.4992 174.0354 440.6589 186.0726 439.4125 C 198.1098 438.1662 215.5868 437.5139 230.1126 437.5956 C 244.6386 437.5952 262.1117 438.3452 274.1417 439.6589 C 286.1718 440.9725 292.7588 442.8497 292.3683 444.3937 z" stroke-linecap="round" />
</g>
<g transform="matrix(2.29 0 0 2.29 320.86 171.52)" id="bNgfIKi96Ehu5ladtP_aV"  >
<path style="stroke: rgb(255,136,0); stroke-width: 1; stroke-dasharray: none; stroke-linecap: butt; stroke-dashoffset: 0; stroke-linejoin: miter; stroke-miterlimit: 4; fill: rgb(0,0,0); fill-opacity: 0; fill-rule: nonzero; opacity: 1;" vector-effect="non-scaling-stroke"  transform=" translate(-252.74, -313.81)" d="M 253.2111 312.2888 L 251.8909 313.5578 C 251.6633 313.8138 251.5688 314.2231 251.661 314.553 C 251.7375 314.8869 252.0161 315.2014 252.3383 315.3176 C 252.6547 315.4489 253.0724 315.4044 253.354 315.2094 C 253.6445 315.0279 253.8506 314.6617 253.855 314.3192 L 253.6505 312.4482 L 253.4804 312.2317 z" stroke-linecap="round" />
</g>
<g transform="matrix(2.29 0 0 2.29 271.62 267.88)" id="HubSQYymS4hz8wBUse2o3"  >
<path style="stroke: rgb(255,242,5); stroke-width: 2; stroke-dasharray: none; stroke-linecap: butt; stroke-dashoffset: 0; stroke-linejoin: miter; stroke-miterlimit: 4; fill: rgb(0,0,0); fill-opacity: 0; fill-rule: nonzero; opacity: 1;" vector-effect="non-scaling-stroke"  transform=" translate(-231.27, -355.83)" d="M 222.0137 355.9078 C 222.3111 358.3214 222.7921 359.0879 223.342 359.7313 C 223.9744 360.4712 224.6981 361.0486 225.8019 361.4734 C 227.7559 362.2255 230.9012 362.4997 230.7709 362.7195 C 230.6601 362.9063 228.185 363.0537 226.2475 362.9543 C 224.4396 362.8614 223.0996 362.5536 222.0373 362.0379 C 221.2608 361.6609 220.6327 361.1729 220.0233 360.4003 C 219.377 359.5809 218.7519 358.4415 218.5699 355.5941 L 218.5699 348.6733 L 243.9692 349.3864 L 222.0137 350.7396 z" stroke-linecap="round" />
</g>
<g transform="matrix(2.29 0 0 2.29 388.17 490.15)" id="4EAPBBpOSUZ3k436tBjkY"  >
<path style="stroke: rgb(5,125,255); stroke-width: 2; stroke-dasharray: none; stroke-linecap: butt; stroke-dashoffset: 0; stroke-linejoin: miter; stroke-miterlimit: 4; fill: rgb(0,0,0); fill-opacity: 0; fill-rule: nonzero; opacity: 1;" vector-effect="non-scaling-stroke"  transform=" translate(-282.09, -452.76)" d="M 292.1942 452.2325 C 292.7292 452.8063 287.1286 453.7778 282.154 453.9742 C 277.1856 454.2921 271.5147 453.9036 271.9877 453.2776 C 271.4526 452.7038 277.0532 451.7323 282.0279 451.5359 C 286.9962 451.218 292.6671 451.6065 292.1942 452.2325 z" stroke-linecap="round" />
</g>
<g transform="matrix(2.29 0 0 2.29 339.95 169.46)" id="TKVGFCi_PCdvfN1cKPcbs"  >
<path style="stroke: rgb(255,136,0); stroke-width: 1; stroke-dasharray: none; stroke-linecap: butt; stroke-dashoffset: 0; stroke-linejoin: miter; stroke-miterlimit: 4; fill: rgb(0,0,0); fill-opacity: 0; fill-rule: nonzero; opacity: 1;" vector-effect="non-scaling-stroke"  transform=" translate(-261.07, -312.92)" d="M 259.8728 311.6852 L 260.055 313.5073 C 260.1157 313.8445 260.3791 314.1717 260.6955 314.303 C 261.0053 314.4491 261.4247 314.4244 261.7151 314.2428 C 262.0139 314.0752 262.237 313.7192 262.2576 313.3773 C 262.2943 313.0367 262.1338 312.6485 261.8672 312.4334 L 260.2697 311.4382 L 259.9944 311.4382 z" stroke-linecap="round" />
</g>
<g transform="matrix(2.29 0 0 2.29 282.3 201.16)" id="rgoVUABzO5otzXYd0zgTc"  >
<path style="stroke: rgb(255,242,5); stroke-width: 2; stroke-dasharray: none; stroke-linecap: butt; stroke-dashoffset: 0; stroke-linejoin: miter; stroke-miterlimit: 4; fill: rgb(0,0,0); fill-opacity: 0; fill-rule: nonzero; opacity: 1;" vector-effect="non-scaling-stroke"  transform=" translate(-235.92, -326.74)" d="M 217.5383 317.6872 C 217.3465 317.7585 217.0076 318.6638 216.7637 319.4461 L 216.1951 321.9456 C 215.9537 323.5577 215.8659 325.29 215.8895 327.0371 C 215.9067 328.3212 215.9842 329.6133 216.483 330.7401 C 216.8703 331.6149 217.5116 332.39 218.2419 333.0544 C 218.829 333.5885 219.4736 334.0509 220.186 334.3872 L 222.3152 335.07 L 225.6478 335.5641 C 228.3746 335.815 231.1143 335.8091 233.9492 335.7899 L 243.3028 335.6985 L 249.6763 335.4706 C 252.0899 335.3259 255.5807 335.0807 255.9331 334.886 C 256.3089 334.6785 253.1163 334.5284 250.5913 334.4049 L 241.1163 333.9228 L 233.8278 333.6719 C 230.8842 333.6438 227.9875 333.743 225.3245 332.8266 C 224.0128 332.3752 222.7578 331.6774 221.6469 330.9881 C 220.8654 330.5031 220.1552 330.0223 219.5947 329.2128 C 218.7583 328.0051 218.2551 326.0656 218.0021 324.5612 C 217.7932 323.3186 217.7551 322.3728 217.7688 320.8006 C 217.7808 319.428 217.8324 317.578 217.5383 317.6872 z" stroke-linecap="round" />
</g>
<g transform="matrix(2.29 0 0 2.29 144.82 216.23)" id="2RkF8tN9VfSPmXpz1KPyO"  >
<path style="stroke: rgb(152,0,255); stroke-width: 2; stroke-dasharray: none; stroke-linecap: butt; stroke-dashoffset: 0; stroke-linejoin: miter; stroke-miterlimit: 4; fill: rgb(0,0,0); fill-opacity: 0; fill-rule: nonzero; opacity: 1;" vector-effect="non-scaling-stroke"  transform=" translate(-175.98, -333.31)" d="M 181.1035 337.5965 L 172.098 337.6772 C 171.63 337.7032 171.1019 337.3501 170.947 336.9077 C 170.7518 336.4815 170.8874 335.8609 171.2425 335.555 L 178.2368 328.9419 z" stroke-linecap="round" />
</g>
<g transform="matrix(2.22 0 0 2.28 315.49 152.1)" id="5YoHzZOdLumgWxrc0GYrk"  >
<path style="stroke: rgb(1,255,244); stroke-width: 2; stroke-dasharray: none; stroke-linecap: butt; stroke-dashoffset: 0; stroke-linejoin: miter; stroke-miterlimit: 4; fill: rgb(0,0,0); fill-opacity: 0; fill-rule: nonzero; opacity: 1;" vector-effect="non-scaling-stroke"  transform=" translate(-250.25, -304.63)" d="M 251.3911 306.5849 C 251.3435 306.8122 251.107 307.0196 250.8754 307.0371 C 250.6465 307.0759 250.367 306.9315 250.2661 306.7224 L 247.9977 302.5291 C 249.4727 302.2281 251.0059 302.1384 252.5058 302.2655 z" stroke-linecap="round" />
</g>
<g transform="matrix(2.22 0 0 2.28 329 151.5)" id="Nmoh-L5tWa66FykXTZPMz"  >
<path style="stroke: rgb(1,255,244); stroke-width: 2; stroke-dasharray: none; stroke-linecap: butt; stroke-dashoffset: 0; stroke-linejoin: miter; stroke-miterlimit: 4; fill: rgb(0,0,0); fill-opacity: 0; fill-rule: nonzero; opacity: 1;" vector-effect="non-scaling-stroke"  transform=" translate(-256.31, -304.38)" d="M 257.3418 306.3521 C 257.2882 306.578 257.0461 306.7791 256.8142 306.7903 C 256.5844 306.823 256.3088 306.6712 256.2135 306.4595 L 254.0581 302.207 C 255.5406 301.9455 257.0756 301.8969 258.5716 302.064 z" stroke-linecap="round" />
</g>
<g transform="matrix(2.22 0 0 2.28 343 151.5)" id="WfMCmanclsYA2zgCG0UOD"  >
<path style="stroke: rgb(1,255,244); stroke-width: 2; stroke-dasharray: none; stroke-linecap: butt; stroke-dashoffset: 0; stroke-linejoin: miter; stroke-miterlimit: 4; fill: rgb(0,0,0); fill-opacity: 0; fill-rule: nonzero; opacity: 1;" vector-effect="non-scaling-stroke"  transform=" translate(-262.4, -304.19)" d="M 263.4291 306.1564 C 263.3756 306.3824 263.1336 306.5835 262.9018 306.5949 C 262.6719 306.6277 262.3962 306.476 262.3009 306.2643 L 260.1434 302.0129 C 261.6257 301.7507 263.1607 301.7014 264.6569 301.8678 z" stroke-linecap="round" />
</g>
<g transform="matrix(2.29 0 0 2.29 132.66 166.55)" id="xTD_nGV1njwC44cDZj_eC"  >
<path style="stroke: rgb(152,0,255); stroke-width: 2; stroke-dasharray: none; stroke-linecap: butt; stroke-dashoffset: 0; stroke-linejoin: miter; stroke-miterlimit: 4; fill: rgb(0,0,0); fill-opacity: 0; fill-rule: nonzero; opacity: 1;" vector-effect="non-scaling-stroke"  transform=" translate(-170.68, -311.65)" d="M 175.4856 316.2016 L 166.7821 313.8853 C 166.324 313.7859 165.9087 313.3051 165.877 312.8375 C 165.8021 312.3747 166.0978 311.8125 166.5215 311.612 L 175.0221 307.0962 L 174.9867 309.4569 L 175.3034 314.6683 z" stroke-linecap="round" />
</g>
<g transform="matrix(2.29 0 0 2.29 256.83 172.98)" id="Cn3S7Tpj3IIsbtEEkRqYR"  >
<path style="stroke: rgb(255,136,0); stroke-width: 1; stroke-dasharray: none; stroke-linecap: butt; stroke-dashoffset: 0; stroke-linejoin: miter; stroke-miterlimit: 4; fill: rgb(0,0,0); fill-opacity: 0; fill-rule: nonzero; opacity: 1;" vector-effect="non-scaling-stroke"  transform=" translate(-224.82, -314.45)" d="M 226.1026 315.587 L 225.7112 313.7982 C 225.612 313.4703 225.3126 313.1757 224.9831 313.0818 C 224.6585 312.9724 224.2448 313.0454 223.9772 313.2593 C 223.6999 313.4603 223.5194 313.8397 223.5384 314.1817 C 223.5412 314.5242 223.7455 314.8913 224.0351 315.0742 L 225.7369 315.8782 L 226.0104 315.8465 z" stroke-linecap="round" />
</g>
<g transform="matrix(2.29 0 0 2.29 315.39 286.53)" id="qU90eEvns7z473ZDHxqCw"  >
<path style="stroke: rgb(1,255,244); stroke-width: 2; stroke-dasharray: none; stroke-linecap: butt; stroke-dashoffset: 0; stroke-linejoin: miter; stroke-miterlimit: 4; fill: rgb(0,0,0); fill-opacity: 0; fill-rule: nonzero; opacity: 1;" vector-effect="non-scaling-stroke"  transform=" translate(-250.36, -364.64)" d="M 249.5286 362.6331 C 249.5927 362.41 249.8439 362.2205 250.0761 362.2201 C 250.3072 362.1982 250.5755 362.3628 250.6607 362.5787 L 252.6145 366.9276 C 251.1214 367.1193 249.5858 367.0959 248.0992 366.8589 z" stroke-linecap="round" />
</g>
<g transform="matrix(2.29 0 0 2.29 313.83 190.2)" id="bTczVOXoJ69hYRstHiGfC"  >
<path style="stroke: rgb(255,136,0); stroke-width: 1; stroke-dasharray: none; stroke-linecap: butt; stroke-dashoffset: 0; stroke-linejoin: miter; stroke-miterlimit: 4; fill: rgb(0,0,0); fill-opacity: 0; fill-rule: nonzero; opacity: 1;" vector-effect="non-scaling-stroke"  transform=" translate(-249.68, -321.96)" d="M 249.4739 320.4554 L 248.6394 322.0853 C 248.5077 322.4015 248.5516 322.8193 248.7463 323.1011 C 248.9275 323.3919 249.2933 323.5984 249.6358 323.6033 C 249.9777 323.6244 250.3582 323.4461 250.5608 323.17 C 250.7763 322.9037 250.8518 322.4904 250.7444 322.1652 L 249.9414 320.463 L 249.71 320.3136 z" stroke-linecap="round" />
</g>
<g transform="matrix(2.46 0 0 2.39 260 196.5)" id="uUxlRl0fGCLdBUF0OcZQa"  >
<path style="stroke: rgb(255,136,0); stroke-width: 1; stroke-dasharray: none; stroke-linecap: butt; stroke-dashoffset: 0; stroke-linejoin: miter; stroke-miterlimit: 4; fill: rgb(0,0,0); fill-opacity: 0; fill-rule: nonzero; opacity: 1;" vector-effect="non-scaling-stroke"  transform=" translate(-225.91, -324.44)" d="M 226.7403 322.9754 L 225.1551 323.8921 C 224.8729 324.0863 224.6833 324.4612 224.694 324.8035 C 224.6885 325.146 224.8838 325.518 225.1689 325.7078 C 225.4447 325.911 225.861 325.9676 226.181 325.8455 C 226.5065 325.7387 226.7941 325.4324 226.8803 325.1009 L 227.1289 323.2353 L 227.0155 322.9843 z" stroke-linecap="round" />
</g>
<g transform="matrix(2.29 0 0 2.29 309.98 163.51)" id="uML_qX1QBzKDsdu_FktkB"  >
<path style="stroke: rgb(255,136,0); stroke-width: 1; stroke-dasharray: none; stroke-linecap: butt; stroke-dashoffset: 0; stroke-linejoin: miter; stroke-miterlimit: 4; fill: rgb(0,0,0); fill-opacity: 0; fill-rule: nonzero; opacity: 1;" vector-effect="non-scaling-stroke"  transform=" translate(-248, -310.32)" d="M 246.8013 309.0849 L 246.9835 310.907 C 247.0441 311.2441 247.3076 311.5714 247.624 311.7027 C 247.9338 311.8488 248.3531 311.8241 248.6436 311.6425 C 248.9424 311.4749 249.1655 311.1189 249.1861 310.777 C 249.2228 310.4364 249.0623 310.0482 248.7957 309.8331 L 247.1982 308.8379 L 246.9228 308.8379 z" stroke-linecap="round" />
</g>
<g transform="matrix(2.22 0 0 2.27 301.36 152.86)" id="XT25GyI7D0BN8Il9srtzc"  >
<path style="stroke: rgb(1,255,244); stroke-width: 2; stroke-dasharray: none; stroke-linecap: butt; stroke-dashoffset: 0; stroke-linejoin: miter; stroke-miterlimit: 4; fill: rgb(0,0,0); fill-opacity: 0; fill-rule: nonzero; opacity: 1;" vector-effect="non-scaling-stroke"  transform=" translate(-244.34, -305.07)" d="M 245.5852 307.0172 C 245.5434 307.2456 245.3121 307.4589 245.0811 307.4822 C 244.8532 307.5267 244.5701 307.3894 244.4641 307.1829 L 242.0916 303.0475 C 243.5585 302.7097 245.089 302.5818 246.5916 302.6713 z" stroke-linecap="round" />
</g>
<g transform="matrix(2.29 0 0 2.29 329.23 286.53)" id="RH0hS9OnycfvboDJXxkxN"  >
<path style="stroke: rgb(1,255,244); stroke-width: 2; stroke-dasharray: none; stroke-linecap: butt; stroke-dashoffset: 0; stroke-linejoin: miter; stroke-miterlimit: 4; fill: rgb(0,0,0); fill-opacity: 0; fill-rule: nonzero; opacity: 1;" vector-effect="non-scaling-stroke"  transform=" translate(-256.44, -364.73)" d="M 255.616 362.7219 C 255.6801 362.4987 255.9313 362.3092 256.1635 362.3089 C 256.3947 362.287 256.6628 362.4515 256.7481 362.6675 L 258.7019 367.0163 C 257.2088 367.208 255.6732 367.1847 254.1866 366.9476 z" stroke-linecap="round" />
</g>
<g transform="matrix(2.29 0 0 2.29 343.05 286.53)" id="zJUuo4mSlUogHVnGFmtXP"  >
<path style="stroke: rgb(1,255,244); stroke-width: 2; stroke-dasharray: none; stroke-linecap: butt; stroke-dashoffset: 0; stroke-linejoin: miter; stroke-miterlimit: 4; fill: rgb(0,0,0); fill-opacity: 0; fill-rule: nonzero; opacity: 1;" vector-effect="non-scaling-stroke"  transform=" translate(-262.53, -364.81)" d="M 261.7034 362.8106 C 261.7675 362.5875 262.0187 362.398 262.2509 362.3976 C 262.4821 362.3757 262.7503 362.5403 262.8355 362.7562 L 264.7893 367.1051 C 263.2962 367.2968 261.7606 367.2734 260.274 367.0364 z" stroke-linecap="round" />
</g>
<g transform="matrix(2.29 0 0 2.29 357.4 286.53)" id="r4rZeADLqPO4KWqi8h2nY"  >
<path style="stroke: rgb(1,255,244); stroke-width: 2; stroke-dasharray: none; stroke-linecap: butt; stroke-dashoffset: 0; stroke-linejoin: miter; stroke-miterlimit: 4; fill: rgb(0,0,0); fill-opacity: 0; fill-rule: nonzero; opacity: 1;" vector-effect="non-scaling-stroke"  transform=" translate(-268.62, -364.9)" d="M 267.7909 362.8994 C 267.8549 362.6762 268.1061 362.4867 268.3383 362.4864 C 268.5695 362.4644 268.8377 362.629 268.9229 362.845 L 270.8767 367.1938 C 269.3836 367.3855 267.848 367.3622 266.3615 367.1251 z" stroke-linecap="round" />
</g>
<g transform="matrix(2.29 0 0 2.29 328.28 202.79)" id="-QnMM510ljlof9L2lqI1E"  >
<path style="stroke: rgb(255,136,0); stroke-width: 1; stroke-dasharray: none; stroke-linecap: butt; stroke-dashoffset: 0; stroke-linejoin: miter; stroke-miterlimit: 4; fill: rgb(0,0,0); fill-opacity: 0; fill-rule: nonzero; opacity: 1;" vector-effect="non-scaling-stroke"  transform=" translate(-255.97, -327.45)" d="M 256.2215 325.9225 L 255.0481 327.3283 C 254.8498 327.6076 254.8006 328.0248 254.9284 328.3427 C 255.0409 328.6662 255.3522 328.9483 255.6852 329.0286 C 256.0141 329.1245 256.4244 329.0346 256.683 328.8099 C 256.9519 328.5977 257.1167 328.2113 257.0836 327.8704 L 256.6758 326.033 L 256.483 325.8363 z" stroke-linecap="round" />
</g>
<g transform="matrix(2.29 0 0 2.29 298.18 176.06)" id="yilS59TkAFOWIqWetDFMo"  >
<path style="stroke: rgb(255,136,0); stroke-width: 1; stroke-dasharray: none; stroke-linecap: butt; stroke-dashoffset: 0; stroke-linejoin: miter; stroke-miterlimit: 4; fill: rgb(0,0,0); fill-opacity: 0; fill-rule: nonzero; opacity: 1;" vector-effect="non-scaling-stroke"  transform=" translate(-242.85, -315.8)" d="M 241.6558 314.5651 L 241.838 316.3872 C 241.8987 316.7243 242.1621 317.0516 242.4785 317.1829 C 242.7883 317.329 243.2077 317.3042 243.4982 317.1227 C 243.7969 316.9551 244.02 316.5991 244.0406 316.2572 C 244.0774 315.9166 243.9168 315.5284 243.6502 315.3133 L 242.0527 314.3181 L 241.7774 314.318 z" stroke-linecap="round" />
</g>
<g transform="matrix(2.29 0 0 2.29 292.19 189.14)" id="hXibeptMNfRA72QchEAZQ"  >
<path style="stroke: rgb(255,136,0); stroke-width: 1; stroke-dasharray: none; stroke-linecap: butt; stroke-dashoffset: 0; stroke-linejoin: miter; stroke-miterlimit: 4; fill: rgb(0,0,0); fill-opacity: 0; fill-rule: nonzero; opacity: 1;" vector-effect="non-scaling-stroke"  transform=" translate(-240.24, -321.5)" d="M 239.047 320.265 L 239.2292 322.087 C 239.2899 322.4242 239.5533 322.7514 239.8697 322.8827 C 240.1795 323.0288 240.5989 323.0041 240.8894 322.8225 C 241.1881 322.6549 241.4112 322.299 241.4318 321.957 C 241.4686 321.6165 241.308 321.2282 241.0414 321.0131 L 239.4439 320.0179 L 239.1686 320.0179 z" stroke-linecap="round" />
</g>
<g transform="matrix(2.29 0 0 2.29 304.01 203.96)" id="_x6BfqForiQ75nOdjHjLJ"  >
<path style="stroke: rgb(255,136,0); stroke-width: 1; stroke-dasharray: none; stroke-linecap: butt; stroke-dashoffset: 0; stroke-linejoin: miter; stroke-miterlimit: 4; fill: rgb(0,0,0); fill-opacity: 0; fill-rule: nonzero; opacity: 1;" vector-effect="non-scaling-stroke"  transform=" translate(-245.39, -327.96)" d="M 244.1955 326.7239 L 244.3777 328.546 C 244.4384 328.8831 244.7019 329.2103 245.0182 329.3416 C 245.328 329.4878 245.7474 329.463 246.0379 329.2814 C 246.3366 329.1138 246.5597 328.7579 246.5803 328.4159 C 246.6171 328.0754 246.4565 327.6872 246.19 327.472 L 244.5925 326.4769 L 244.3171 326.4768 z" stroke-linecap="round" />
</g>
<g transform="matrix(2.29 0 0 2.29 280.6 164.28)" id="LId_3fjVZhP1Gq7BLrNtF"  >
<path style="stroke: rgb(255,136,0); stroke-width: 1; stroke-dasharray: none; stroke-linecap: butt; stroke-dashoffset: 0; stroke-linejoin: miter; stroke-miterlimit: 4; fill: rgb(0,0,0); fill-opacity: 0; fill-rule: nonzero; opacity: 1;" vector-effect="non-scaling-stroke"  transform=" translate(-235.19, -310.66)" d="M 235.4196 312.1569 L 236.2314 310.5155 C 236.3588 310.1975 236.309 309.7804 236.1104 309.5013 C 235.9252 309.2131 235.5565 309.0117 235.214 309.0116 C 234.8718 308.9952 234.4939 309.1787 234.2951 309.4577 C 234.0833 309.7269 234.0136 310.1412 234.1255 310.4649 L 234.9521 312.1559 L 235.1855 312.3019 z" stroke-linecap="round" />
</g>
<g transform="matrix(2.29 0 0 2.29 279.81 201.91)" id="QutC_4ESVk-sTgG9C_sHW"  >
<path style="stroke: rgb(255,136,0); stroke-width: 1; stroke-dasharray: none; stroke-linecap: butt; stroke-dashoffset: 0; stroke-linejoin: miter; stroke-miterlimit: 4; fill: rgb(0,0,0); fill-opacity: 0; fill-rule: nonzero; opacity: 1;" vector-effect="non-scaling-stroke"  transform=" translate(-234.84, -327.07)" d="M 233.6416 325.8346 L 233.8239 327.6566 C 233.8845 327.9937 234.148 328.321 234.4644 328.4523 C 234.7742 328.5984 235.1935 328.5737 235.484 328.3921 C 235.7828 328.2245 236.0059 327.8685 236.0265 327.5266 C 236.0632 327.1861 235.9027 326.7978 235.6361 326.5827 L 234.0386 325.5876 L 233.7632 325.5875 z" stroke-linecap="round" />
</g>
<g transform="matrix(2.29 0 0 2.29 271.58 182.99)" id="oOgdjA_1oqiELzOECt6At"  >
<path style="stroke: rgb(255,136,0); stroke-width: 1; stroke-dasharray: none; stroke-linecap: butt; stroke-dashoffset: 0; stroke-linejoin: miter; stroke-miterlimit: 4; fill: rgb(0,0,0); fill-opacity: 0; fill-rule: nonzero; opacity: 1;" vector-effect="non-scaling-stroke"  transform=" translate(-231.26, -318.82)" d="M 230.2733 320.2054 L 231.9794 319.5403 C 232.2879 319.3912 232.5323 319.0496 232.5737 318.7095 C 232.6313 318.3719 232.4947 317.9745 232.2418 317.7435 C 232.0001 317.5008 231.5972 317.3816 231.2624 317.4536 C 230.9244 317.5097 230.5936 317.7687 230.4581 318.0833 L 229.9288 319.8894 L 230.0027 320.1547 z" stroke-linecap="round" />
</g>
<g transform="matrix(2.29 0 0 2.29 137.12 191.22)" id="86SXyd4OGc5fO_V7l7Pwj"  >
<path style="stroke: rgb(152,0,255); stroke-width: 2; stroke-dasharray: none; stroke-linecap: butt; stroke-dashoffset: 0; stroke-linejoin: miter; stroke-miterlimit: 4; fill: rgb(0,0,0); fill-opacity: 0; fill-rule: nonzero; opacity: 1;" vector-effect="non-scaling-stroke"  transform=" translate(-172.62, -322.4)" d="M 177.6559 326.8596 L 177.6559 326.8602 L 168.6934 325.9709 C 168.2253 325.9463 167.7383 325.5384 167.6319 325.0819 C 167.4837 324.6372 167.6853 324.0348 168.0714 323.7689 L 175.7369 317.9472 L 176.1363 320.2541 L 177.4835 326.2077 z" stroke-linecap="round" />
</g>
<g transform="matrix(2.29 0 0 2.29 160.47 261.34)" id="eZEZKCWph-MY1YwwwXdun"  >
<path style="stroke: rgb(125,38,205); stroke-width: 0.24; stroke-dasharray: none; stroke-linecap: butt; stroke-dashoffset: 0; stroke-linejoin: miter; stroke-miterlimit: 4; fill: rgb(0,0,0); fill-opacity: 0; fill-rule: nonzero; opacity: 1;" vector-effect="non-scaling-stroke"  transform=" translate(-182.81, -352.98)" d="M 182.8204 352.9671 L 182.793 352.9938 z" stroke-linecap="round" />
</g>
<g transform="matrix(2.29 0 0 2.29 198.81 28.38)" id="dh-M7QAXKq3DIGcBjjiKX"  >
<path style="stroke: rgb(255,0,0); stroke-width: 2; stroke-dasharray: none; stroke-linecap: butt; stroke-dashoffset: 0; stroke-linejoin: miter; stroke-miterlimit: 4; fill: rgb(255,0,0); fill-opacity: 0; fill-rule: nonzero; opacity: 1;" vector-effect="non-scaling-stroke"  transform=" translate(0, 0)" d="M -5.11478 -7.80345 C -6.904579999999999 -5.01135 -7.19098 1.7181499999999996 -5.68758 4.7250499999999995 C -4.11248 7.73185 -2.4659799999999996 9.66475 -1.39208 9.66475 C -0.96258 9.66475 1.1852200000000002 8.08985 3.3329199999999997 6.15685 C 6.26812 3.4363500000000005 7.055719999999999 2.3625500000000006 6.48292 1.6465500000000004 C 2.18752 -4.510249999999999 -2.1079799999999995 -9.664749999999998 -2.895479999999999 -9.664749999999998 C -3.3965799999999993 -9.664749999999998 -4.398879999999999 -8.805649999999998 -5.11478 -7.803449999999998 z" stroke-linecap="round" />
</g>
<g transform="matrix(2.29 0 0 2.29 137.85 61.73)" id="83JwxVB_UlBpyf8cbsgal"  >
<path style="stroke: rgb(255,0,0); stroke-width: 2; stroke-dasharray: none; stroke-linecap: butt; stroke-dashoffset: 0; stroke-linejoin: miter; stroke-miterlimit: 4; fill: rgb(0,0,0); fill-opacity: 0; fill-rule: nonzero; opacity: 1;" vector-effect="non-scaling-stroke"  transform=" translate(-172.94, -265.94)" d="M 163.6203 253.6901 C 162.3317 258.2003 163.1192 264.4287 165.4101 269.0822 C 168.2738 274.881 174.359 281.0378 176.1488 279.964 C 177.9385 278.8185 182.1624 270.0128 182.5204 266.5049 L 182.8783 263.498 L 178.5829 260.8492 C 176.2204 259.4174 172.7124 256.7685 170.7078 254.9787 C 166.5556 251.1844 164.4078 250.8264 163.6203 253.6901 z" stroke-linecap="round" />
</g>
<g transform="matrix(2.29 0 0 2.29 219.04 53.08)" id="0OuP-gCuqtAlgKVqoc_a0"  >
<path style="stroke: rgb(255,0,0); stroke-width: 2; stroke-dasharray: none; stroke-linecap: butt; stroke-dashoffset: 0; stroke-linejoin: miter; stroke-miterlimit: 4; fill: rgb(0,0,0); fill-opacity: 0; fill-rule: nonzero; opacity: 1;" vector-effect="non-scaling-stroke"  transform=" translate(-208.34, -262.17)" d="M 207.434 257.9139 C 202.5659 260.4196 200.4897 263.9276 202.4943 266.1469 C 203.2102 266.9344 204.0693 267.5071 204.5704 267.5071 C 204.9999 267.5071 207.5056 265.8605 210.1545 263.7844 L 214.9511 260.1333 L 213.3761 258.4151 C 211.5863 256.4821 210.3693 256.3389 207.434 257.9139 z" stroke-linecap="round" />
</g>
<g transform="matrix(2.29 0 0 2.29 273.6 98.97)" id="YnyrpMZf89UCby9h1i-Px"  >
<path style="stroke: rgb(239,235,42); stroke-width: 2; stroke-dasharray: none; stroke-linecap: butt; stroke-dashoffset: 0; stroke-linejoin: miter; stroke-miterlimit: 4; fill: rgb(255,255,255); fill-rule: nonzero; opacity: 1;" vector-effect="non-scaling-stroke"  transform=" translate(-232.13, -282.18)" d="M 234.8534 279.1049 C 235.3545 279.606 235.7125 280.9662 235.7125 282.1833 C 235.7125 284.9037 234.567 286.1208 232.1329 286.1208 C 229.6989 286.1208 228.5534 284.9037 228.5534 282.1833 C 228.5534 279.4628 229.6989 278.2458 232.1329 278.2458 C 233.1352 278.2458 234.3523 278.6038 234.8534 279.1049 z" stroke-linecap="round" />
</g>
<g transform="matrix(2.29 0 0 2.29 241.42 263.39)" id="Uahx24WQcY9iASqU3zoMU"  >
<path style="stroke: rgb(124,255,1); stroke-width: 2; stroke-dasharray: none; stroke-linecap: butt; stroke-dashoffset: 0; stroke-linejoin: miter; stroke-miterlimit: 4; fill: rgb(0,0,0); fill-opacity: 0; fill-rule: nonzero; opacity: 1;" vector-effect="non-scaling-stroke"  transform=" translate(-218.1, -353.87)" d="M 221.967 261.7083 C 217.6716 263.0685 211.6579 266.5764 209.7965 268.3439 C 208.5389 269.4401 208.5079 272.0174 208.2931 274.4515 C 207.434 282.8992 203.4965 288.4117 195.6931 292.0629 C 191.0397 294.2822 186.3147 294.8549 182.6635 293.781 C 180.9454 292.9853 180.7306 293.4231 179.1556 297.0026 C 175.2181 306.2379 176.7215 320.4845 183.5942 338.4538 C 185.8851 344.5391 186.4579 344.9686 190.1806 342.5192 C 198.3693 335.0861 193.3248 345.5414 184.2386 354.4186 C 168.2022 371.3141 161.9737 381.0505 160.8283 390.8585 C 160.4703 393.8653 160.6135 394.9391 161.6158 395.8698 C 163.334 397.6596 165.9113 397.3733 167.5578 395.2971 C 168.6356 393.0062 169.8488 387.5635 169.8488 395.6551 C 169.8488 398.7335 171.2806 401.3824 173.2851 401.8835 C 175.7908 402.4562 177.2942 401.3108 177.5806 398.5903 L 178.0817 395.9905 C 178.5067 394.3983 179.3835 397.1585 180.1579 398.1608 C 182.0908 400.0937 184.7397 400.5233 186.1715 399.0914 C 186.6726 398.5903 187.0306 396.8005 187.0306 395.0107 C 187.1022 388.9971 187.0586 386.0606 192.1852 381.6739 C 197.4113 376.2707 204.9155 370.7034 195.7647 380.6209 C 194.1181 382.6971 192.5431 385.2028 192.2567 386.205 C 191.684 388.6392 192.5431 416.2017 193.4738 425.7233 C 194.6192 436.8915 195.6931 440.1131 199.6306 443.5495 C 205.3579 448.6324 210.942 448.4177 216.3113 443.0483 C 220.0341 439.3256 225.5466 428.8017 228.9829 418.9221 C 230.0568 415.7722 231.2738 412.9801 231.6318 412.7653 C 231.9898 412.5505 234.925 412.121 238.2898 411.9062 C 245.8784 411.3335 254.7557 408.971 258.8364 406.4653 C 262.7023 403.9596 268.2148 397.588 270.0762 393.3642 C 271.7228 389.5698 273.6557 378.4016 273.6557 372.3164 L 273.6557 367.9493 L 249.1 367.5914 C 225.7613 367.305 224.3295 367.1618 221.3227 365.73 C 216.884 363.5823 215.3091 360.7187 215.4522 354.9198 C 215.5238 351.3402 216.5679 349.1983 214.1636 348.5482 C 212.4454 346.3289 212.3738 343.4652 213.7047 342.3185 C 214.7363 342.3469 216.1682 342.1766 217.242 341.6039 C 219.1034 340.6732 219.3897 340.7448 221.3227 342.3914 C 223.8284 344.5391 224.3295 344.5391 227.8375 342.5345 C 228.305 342.3974 229.313 341.3218 230.6295 341.4572 C 232.4835 341.7711 232.5111 342.36 233.3061 343.0305 C 235.4261 345.0331 239.0057 345.3961 241.713 343.5368 C 244.3034 340.6216 247.3818 340.3463 250.8283 343.084 C 253.0375 344.8073 255.3003 344.9051 258.3353 342.7503 C 260.2682 341.2639 261.4682 342.6061 262.7739 343.8038 C 263.5375 344.4414 264.3012 344.7733 265.0648 345.0079 C 266.2341 345.1445 267.4034 344.7253 268.1916 344.1811 C 269.8188 342.8209 271.8649 342.1059 273.9018 343.322 C 274.5148 343.8232 275.9445 345.0616 275.4431 343.4652 C 275.0876 341.8902 272.1523 341.1027 268.8591 341.8186 C 266.0671 342.463 264.773 342.8617 262.416 340.7973 C 260.4769 338.7913 259.1943 339.5277 257.1182 340.7448 C 254.3262 342.3198 253.0375 342.2482 250.3887 340.53 C 247.525 338.6686 245.4489 338.7402 242.2989 340.8879 C 239.0057 343.1789 237.7886 343.1073 233.5648 340.7448 C 230.1284 338.8118 230.0568 338.8118 227.4795 340.0288 C 224.2579 341.6039 223.9 341.5323 221.3943 339.6709 C 219.3181 338.1675 219.2466 338.1675 216.4545 339.4561 C 213.7341 340.3468 213.4477 340.0654 211.5494 339.5277 C 210.1545 338.5254 210.0113 338.0959 210.1157 336.7357 C 210.5758 334.7468 211.9443 334.7311 212.3738 334.1584 C 214.0143 333.5141 213.0897 330.7936 212.9465 326.9277 C 212.7318 321.8447 212.9465 320.055 214.092 317.4061 C 217.242 310.3902 223.2557 306.0947 234.1375 303.1595 C 238.3614 302.0856 242.7284 301.6561 252.8228 301.3697 L 265.9239 300.9402 L 265.4944 297.0742 C 264.85 291.4185 261.1989 280.6083 258.2637 275.7401 C 254.6125 269.7265 250.4603 265.6458 245.0909 262.9969 C 240.9386 260.9923 239.65 260.706 233.2784 260.5628 C 227.6943 260.4196 225.117 260.6344 221.967 261.7083 z" stroke-linecap="round" />
</g>
<g transform="matrix(2.29 0 0 2.29 180.12 88.62)" id="_XVOrl4B7xiJuixSMB7-d"  >
<path style="stroke: rgb(255,0,0); stroke-width: 2; stroke-dasharray: none; stroke-linecap: butt; stroke-dashoffset: 0; stroke-linejoin: miter; stroke-miterlimit: 4; fill: rgb(0,0,0); fill-opacity: 0; fill-rule: nonzero; opacity: 1;" vector-effect="non-scaling-stroke"  transform=" translate(-191.37, -277.66)" d="M 190.109 266.5764 C 188.4624 271.0867 185.9567 276.0981 183.0215 280.3935 C 181.1601 283.1856 179.9431 285.6913 180.2294 286.1208 C 181.0885 287.481 186.4579 289.7003 189.0351 289.7003 C 194.2613 289.7003 198.4852 285.1185 201.4204 276.3128 C 202.8522 271.8026 202.9238 271.6594 201.6352 270.2276 C 200.2034 268.6526 195.9795 266.5764 192.5431 265.7889 C 191.0397 265.431 190.467 265.6458 190.109 266.5764 z" stroke-linecap="round" />
</g>
<g transform="matrix(2.29 0 0 2.29 381.79 138.21)" id="Cz-2sjU0iQEcJpgZTf_M7"  >
<path style="stroke: rgb(0,0,0); stroke-width: 1; stroke-dasharray: none; stroke-linecap: butt; stroke-dashoffset: 0; stroke-linejoin: miter; stroke-miterlimit: 4; fill: rgb(0,0,0); fill-opacity: 0; fill-rule: nonzero; opacity: 1;" vector-effect="non-scaling-stroke"  transform=" translate(-279.31, -299.29)" d="M 277.9512 299.0788 C 276.8773 301.0117 277.3069 301.3697 279.741 300.439 C 281.3876 299.7947 281.5308 299.5083 280.8148 298.6492 C 279.5978 297.2174 278.8819 297.289 277.9512 299.0788 z" stroke-linecap="round" />
</g>
<g transform="matrix(2.29 0 0 2.29 377.76 162.99)" id="LWViTFfTI9ZkTmQQnlHCd"  >
<path style="stroke: rgb(0,0,0); stroke-width: 1; stroke-dasharray: none; stroke-linecap: butt; stroke-dashoffset: 0; stroke-linejoin: miter; stroke-miterlimit: 4; fill: rgb(0,0,0); fill-opacity: 0; fill-rule: nonzero; opacity: 1;" vector-effect="non-scaling-stroke"  transform=" translate(-277.55, -310.09)" d="M 275.8035 308.8152 C 275.8035 309.1731 276.233 310.0322 276.7342 310.7481 C 277.5932 311.8936 277.7364 311.8936 278.5955 310.8913 C 279.741 309.5311 279.5978 309.3879 277.4501 308.7436 C 276.5194 308.4572 275.8035 308.5288 275.8035 308.8152 z" stroke-linecap="round" />
</g>
<g transform="matrix(2.29 0 0 2.29 385.35 302.72)" id="HqYcqxP7b7pnCuJxLClgF"  >
<path style="stroke: rgb(0,0,0); stroke-width: 1; stroke-dasharray: none; stroke-linecap: butt; stroke-dashoffset: 0; stroke-linejoin: miter; stroke-miterlimit: 4; fill: rgb(0,0,0); fill-opacity: 0; fill-rule: nonzero; opacity: 1;" vector-effect="non-scaling-stroke"  transform=" translate(-280.86, -371.03)" d="M 279.741 370.7414 C 280.3853 372.8175 280.5285 372.9607 281.4592 372.388 C 282.6762 371.6721 282.3898 370.7414 280.7433 369.8107 C 279.383 369.0948 279.3114 369.1664 279.741 370.7414 z" stroke-linecap="round" />
</g>
<g transform="matrix(2.29 0 0 2.29 299.29 436.47)" id="sUhDzcQGz_9tE81_pjltJ"  >
<path style="stroke: rgb(124,255,1); stroke-width: 2; stroke-dasharray: none; stroke-linecap: butt; stroke-dashoffset: 0; stroke-linejoin: miter; stroke-miterlimit: 4; fill: rgb(0,0,0); fill-opacity: 0; fill-rule: nonzero; opacity: 1;" vector-effect="non-scaling-stroke"  transform=" translate(-243.34, -429.35)" d="M 250.8182 413.9824 C 249.0284 414.5551 244.0886 415.3426 239.7932 415.8438 L 231.9898 416.7028 L 232.2761 427.4415 C 232.5625 436.6767 232.7773 438.6813 234.1375 441.187 C 237.7886 448.2745 245.95 446.2699 249.7443 437.2495 C 252.3932 430.9494 255.6864 413.9108 254.3978 413.2664 C 254.183 413.1233 252.5364 413.4812 250.8182 413.9824 z" stroke-linecap="round" />
</g>
<g transform="matrix(2.29 0 0 2.29 143.29 395.28)" id="Vtluw8iaQeJCM5D6kQXA8"  >
<path style="stroke: rgb(124,255,1); stroke-width: 2; stroke-dasharray: none; stroke-linecap: butt; stroke-dashoffset: 0; stroke-linejoin: miter; stroke-miterlimit: 4; fill: rgb(0,0,0); fill-opacity: 0; fill-rule: nonzero; opacity: 1;" vector-effect="non-scaling-stroke"  transform=" translate(-175.32, -411.38)" d="M 189.9875 412.9295 C 189.8102 410.6374 189.6337 408.0266 189.6422 405.231 L 189.7037 401.3138 L 182.8478 404.01 C 177.1234 406.3996 171.6013 409.0715 165.1513 412.6181 C 157.8336 416.406 158.544 422.6954 166.9804 421.2286 L 190.5105 418.0137 z" stroke-linecap="round" />
</g>
<g transform="matrix(1 0 0 1 280 148.52)" id="8HI1nUlVUfQA4TqpfnNVz"  >
<path style="stroke: rgb(142,142,142); stroke-width: 1; stroke-dasharray: none; stroke-linecap: butt; stroke-dashoffset: 0; stroke-linejoin: miter; stroke-miterlimit: 4; fill: rgb(255,255,255); fill-opacity: 0; fill-rule: nonzero; opacity: 1;" vector-effect="non-scaling-stroke"  transform=" translate(0, 0)" d="M 0 0" stroke-linecap="round" />
</g>
<g transform="matrix(1 0 0 1 319.09 145.86)" id="VIGsp7irUaHSHpYcZ8hTb"  >
<path style="stroke: rgb(255,17,120); stroke-width: 2; stroke-dasharray: none; stroke-linecap: butt; stroke-dashoffset: 0; stroke-linejoin: miter; stroke-miterlimit: 4; fill: rgb(255,255,255); fill-opacity: 0; fill-rule: nonzero; opacity: 1;" vector-effect="non-scaling-stroke"  transform=" translate(0, 0)" d="M -30.47117 1.35016 L -24.57269 0.81933 L -18.07372 0.25366999999999995 L -12.349390000000001 0.034369999999999956 L -5.098340000000001 -0.39299000000000006 L 4.086379999999999 -0.7967600000000001 L 16.00974 -1.07346 L 30.47116 -1.35016" stroke-linecap="round" />
</g>
<g transform="matrix(1 0 0 1 334.31 293.14)" id="1IQp3X3IM85vt7-_UmU_P"  >
<path style="stroke: rgb(255,17,120); stroke-width: 2; stroke-dasharray: none; stroke-linecap: butt; stroke-dashoffset: 0; stroke-linejoin: miter; stroke-miterlimit: 4; fill: rgb(255,255,255); fill-opacity: 0; fill-rule: nonzero; opacity: 1;" vector-effect="non-scaling-stroke"  transform=" translate(0, 0)" d="M -30.36849 -0.48574 L 30.36849 0.48572999999999994" stroke-linecap="round" />
</g>
<g transform="matrix(1 0 0 1 299.43 224.64)" id="pxkSCRUrrX7ATnVZnzjPJ"  >
<path style="stroke: rgb(192,141,90); stroke-width: 4; stroke-dasharray: none; stroke-linecap: butt; stroke-dashoffset: 0; stroke-linejoin: miter; stroke-miterlimit: 4; fill: rgb(255,255,255); fill-opacity: 0; fill-rule: nonzero; opacity: 1;" vector-effect="non-scaling-stroke"  transform=" translate(0, 0)" d="M -65.41786 -9.03414 C -65.41786 -9.03414 -65.12655000000001 -7.245330000000001 -65.94752000000001 -6.279900000000001 C -66.76849000000001 -5.314470000000002 -67.05981000000001 -5.198900000000002 -68.48989000000002 -3.9012300000000013 C -69.91997000000002 -2.603560000000001 -71.37533000000002 -2.3810400000000014 -72.09158000000002 -0.6654900000000015 C -72.80783000000002 1.0500599999999984 -71.90929000000003 1.7038799999999985 -71.03709000000002 2.5372399999999984 C -70.16489000000001 3.3706099999999983 -67.93054000000002 4.1510099999999985 -64.47627000000003 3.1164799999999984 C -61.02200000000003 2.081949999999998 -57.57620000000003 -0.26222000000000145 -55.10137000000003 -0.1178400000000015 C -52.626540000000034 0.0265299999999985 -49.92313000000003 2.2626299999999984 -48.43287000000003 3.1643199999999987 C -46.94261000000003 4.065999999999999 -46.80910000000003 4.724639999999999 -44.26743000000003 5.501609999999999 C -41.72576000000004 6.278579999999999 -41.95924000000003 5.672029999999999 -37.84246000000003 3.7298099999999987 C -33.72568000000003 1.7875899999999987 -31.56150000000003 1.4757999999999987 -30.02488000000003 1.5462899999999986 C -28.488260000000032 1.6167799999999986 -27.16743000000003 2.0212899999999987 -22.373940000000033 4.435509999999999 C -17.580450000000035 6.849729999999999 -14.227850000000034 9.087039999999998 -11.519470000000034 9.033199999999999 C -8.811090000000034 8.97936 -5.246570000000034 6.058579999999999 -1.0358600000000333 4.018559999999999 C 3.1748499999999664 1.9785399999999989 3.3931499999999666 1.469409999999999 7.971669999999966 1.508719999999999 C 12.550189999999965 1.548029999999999 13.009309999999966 1.873479999999999 16.763849999999966 3.798169999999999 C 20.518389999999965 5.722859999999999 22.005649999999967 7.367329999999999 23.929479999999966 7.483529999999999 C 25.853299999999965 7.599729999999999 28.395669999999967 6.033399999999999 30.685129999999965 4.69347 C 32.97457999999997 3.3535299999999997 34.88774999999997 2.1716299999999995 37.21864999999997 1.8059899999999995 C 39.54954999999997 1.4403599999999996 42.83169999999997 3.0485099999999994 44.888369999999966 4.55674 C 46.94503999999996 6.06497 48.67539999999997 8.51806 50.14217999999997 8.62825 C 51.60895999999997 8.738439999999999 54.11589999999997 8.60346 56.26397999999997 7.963609999999999 C 58.41205999999997 7.323759999999999 62.75222999999997 6.9666999999999994 65.21166999999997 7.080329999999999 C 67.67110999999997 7.193959999999999 69.76113999999997 7.475009999999999 72.35172999999998 8.73593" stroke-linecap="round" />
</g>
</svg>